<?xml version="1.0" encoding="utf-8"?>
<!-- Generator: Adobe Illustrator 18.1.1, SVG Export Plug-In . SVG Version: 6.00 Build 0)  -->
<!DOCTYPE svg PUBLIC "-//W3C//DTD SVG 1.1//EN" "http://www.w3.org/Graphics/SVG/1.1/DTD/svg11.dtd">
<svg version="1.1" id="Layer_1" xmlns="http://www.w3.org/2000/svg" xmlns:xlink="http://www.w3.org/1999/xlink" x="0px" y="0px"
	 viewBox="0 0 612 792" enable-background="new 0 0 612 792" xml:space="preserve">
<path fill="#D1D1D1" d="M353.8,331c25-16,41.5-43.9,41.5-75.7c0-49.6-40.3-89.9-89.9-89.9s-89.9,40.3-89.9,89.9
	c0,31.8,16.6,59.8,41.6,75.8c-40.5,20.4-79.9,60.4-79.9,95.4c0,41.7,88.9,46.2,127.2,46.2s127.2-4.5,127.2-46.2
	C431.7,390.8,393.7,351.2,353.8,331z M305.4,195.9c32.7,0,59.3,26.6,59.3,59.3s-26.6,59.3-59.3,59.3s-59.3-26.6-59.3-59.3
	S272.7,195.9,305.4,195.9z M304.5,442c-58.5,0-90.9-10.6-96.6-16.8c1.6-31.5,64.3-77.2,97.5-77.2c32.5,0,94.1,45.7,95.6,77.2
	C395.4,431.4,363,442,304.5,442z"/>
</svg>
